<svg width="48" height="48" viewBox="0 0 48 48" fill="none" xmlns="http://www.w3.org/2000/svg">
<path d="M32.04 7.81994L26.28 3.78994C24.71 2.68994 22.3 2.74994 20.79 3.91994L15.78 7.82994C14.78 8.60994 13.99 10.2099 13.99 11.4699V18.3699C13.99 20.9199 16.06 22.9999 18.61 22.9999H29.39C31.94 22.9999 34.01 20.9299 34.01 18.3799V11.5999C34.01 10.2499 33.14 8.58994 32.04 7.81994ZM24.75 18.9999C24.75 19.4099 24.41 19.7499 24 19.7499C23.59 19.7499 23.25 19.4099 23.25 18.9999V15.9999C23.25 15.5899 23.59 15.2499 24 15.2499C24.41 15.2499 24.75 15.5899 24.75 15.9999V18.9999Z" fill="#0E3A99"/>
<path d="M13.368 33.636V42H12.276V38.208H8.016V42H6.924V33.636H8.016V37.308H12.276V33.636H13.368ZM18.1006 42.108C17.4846 42.108 16.9246 41.968 16.4206 41.688C15.9246 41.408 15.5326 41.012 15.2446 40.5C14.9646 39.98 14.8246 39.38 14.8246 38.7C14.8246 38.028 14.9686 37.436 15.2566 36.924C15.5526 36.404 15.9526 36.008 16.4566 35.736C16.9606 35.456 17.5246 35.316 18.1486 35.316C18.7726 35.316 19.3366 35.456 19.8406 35.736C20.3446 36.008 20.7406 36.4 21.0286 36.912C21.3246 37.424 21.4726 38.02 21.4726 38.7C21.4726 39.38 21.3206 39.98 21.0166 40.5C20.7206 41.012 20.3166 41.408 19.8046 41.688C19.2926 41.968 18.7246 42.108 18.1006 42.108ZM18.1006 41.148C18.4926 41.148 18.8606 41.056 19.2046 40.872C19.5486 40.688 19.8246 40.412 20.0326 40.044C20.2486 39.676 20.3566 39.228 20.3566 38.7C20.3566 38.172 20.2526 37.724 20.0446 37.356C19.8366 36.988 19.5646 36.716 19.2286 36.54C18.8926 36.356 18.5286 36.264 18.1366 36.264C17.7366 36.264 17.3686 36.356 17.0326 36.54C16.7046 36.716 16.4406 36.988 16.2406 37.356C16.0406 37.724 15.9406 38.172 15.9406 38.7C15.9406 39.236 16.0366 39.688 16.2286 40.056C16.4286 40.424 16.6926 40.7 17.0206 40.884C17.3486 41.06 17.7086 41.148 18.1006 41.148ZM30.8164 35.304C31.3284 35.304 31.7844 35.412 32.1844 35.628C32.5844 35.836 32.9004 36.152 33.1324 36.576C33.3644 37 33.4804 37.516 33.4804 38.124V42H32.4004V38.28C32.4004 37.624 32.2364 37.124 31.9084 36.78C31.5884 36.428 31.1524 36.252 30.6004 36.252C30.0324 36.252 29.5804 36.436 29.2444 36.804C28.9084 37.164 28.7404 37.688 28.7404 38.376V42H27.6604V38.28C27.6604 37.624 27.4964 37.124 27.1684 36.78C26.8484 36.428 26.4124 36.252 25.8604 36.252C25.2924 36.252 24.8404 36.436 24.5044 36.804C24.1684 37.164 24.0004 37.688 24.0004 38.376V42H22.9084V35.424H24.0004V36.372C24.2164 36.028 24.5044 35.764 24.8644 35.58C25.2324 35.396 25.6364 35.304 26.0764 35.304C26.6284 35.304 27.1164 35.428 27.5404 35.676C27.9644 35.924 28.2804 36.288 28.4884 36.768C28.6724 36.304 28.9764 35.944 29.4004 35.688C29.8244 35.432 30.2964 35.304 30.8164 35.304ZM41.2717 38.46C41.2717 38.668 41.2597 38.888 41.2357 39.12H35.9797C36.0197 39.768 36.2397 40.276 36.6397 40.644C37.0477 41.004 37.5397 41.184 38.1157 41.184C38.5877 41.184 38.9797 41.076 39.2917 40.86C39.6117 40.636 39.8357 40.34 39.9637 39.972H41.1397C40.9637 40.604 40.6117 41.12 40.0837 41.52C39.5557 41.912 38.8997 42.108 38.1157 42.108C37.4917 42.108 36.9317 41.968 36.4357 41.688C35.9477 41.408 35.5637 41.012 35.2837 40.5C35.0037 39.98 34.8637 39.38 34.8637 38.7C34.8637 38.02 34.9997 37.424 35.2717 36.912C35.5437 36.4 35.9237 36.008 36.4117 35.736C36.9077 35.456 37.4757 35.316 38.1157 35.316C38.7397 35.316 39.2917 35.452 39.7717 35.724C40.2517 35.996 40.6197 36.372 40.8757 36.852C41.1397 37.324 41.2717 37.86 41.2717 38.46ZM40.1437 38.232C40.1437 37.816 40.0517 37.46 39.8677 37.164C39.6837 36.86 39.4317 36.632 39.1117 36.48C38.7997 36.32 38.4517 36.24 38.0677 36.24C37.5157 36.24 37.0437 36.416 36.6517 36.768C36.2677 37.12 36.0477 37.608 35.9917 38.232H40.1437Z" fill="#0E3A99"/>
</svg>
